# xmcd CD database file
# Copyright (C) 1995 Ti Kan
#
# Track frame offsets:
#	183
#	10095
#	21983
#	34363
#	44118
#	51798
#	62098
#	72870
#	81213
#	90125
#	102133
#	112430
#	124443
#	133198
#
# Disc length: 1930 seconds
#
# Revision: 2
# Processed by: cddbd v1.4PL0 Copyright (c) Steve Scherf et al.
# Submitted via: NotifyCDPlayer(CDDB) 1.60beta5_freedb
#
DISCID=c907880e
DTITLE=Johnny Cash - I Walk The Line - CD 3
DYEAR=1900
DGENRE=
TTITLE0=Rock Island Line
TTITLE1=Home Of The Blues
TTITLE2=The Next In Line
TTITLE3=Borne To Loose
TTITLE4=Come In Stranger
TTITLE5=There You Go
TTITLE6=Train Of Love
TTITLE7=Guess Things Happen That Way
TTITLE8=Life Goes On
TTITLE9=Give My Love To Rose
TTITLE10=The Ways Of A Woman In Love
TTITLE11=Good Night Irene
TTITLE12=Katy Too
TTITLE13=Thanks A Lot
EXTD=Sun Recordings
EXTT0=
EXTT1=
EXTT2=
EXTT3=
EXTT4=
EXTT5=
EXTT6=
EXTT7=
EXTT8=
EXTT9=
EXTT10=
EXTT11=
EXTT12=
EXTT13=
PLAYORDER=
